<?xml version="1.0" encoding="UTF-8" standalone="no"?>
<!-- Created with Inkscape (http://www.inkscape.org/) -->

<svg
   width="72.918694mm"
   height="73.079773mm"
   viewBox="0 0 72.918694 73.079773"
   version="1.1"
   id="svg816"
   xml:space="preserve"
   inkscape:version="1.2.1 (9c6d41e410, 2022-07-14)"
   sodipodi:docname="dc_ac_inverter.svg"
   xmlns:inkscape="http://www.inkscape.org/namespaces/inkscape"
   xmlns:sodipodi="http://sodipodi.sourceforge.net/DTD/sodipodi-0.dtd"
   xmlns="http://www.w3.org/2000/svg"
   xmlns:svg="http://www.w3.org/2000/svg"><sodipodi:namedview
     id="namedview818"
     pagecolor="#ffffff"
     bordercolor="#666666"
     borderopacity="1.0"
     inkscape:showpageshadow="2"
     inkscape:pageopacity="0.0"
     inkscape:pagecheckerboard="0"
     inkscape:deskcolor="#d1d1d1"
     inkscape:document-units="mm"
     showgrid="false"
     inkscape:zoom="0.49197391"
     inkscape:cx="131.10451"
     inkscape:cy="71.141984"
     inkscape:window-width="1280"
     inkscape:window-height="961"
     inkscape:window-x="-8"
     inkscape:window-y="-8"
     inkscape:window-maximized="1"
     inkscape:current-layer="layer1" /><defs
     id="defs813" /><g
     inkscape:label="Layer 1"
     inkscape:groupmode="layer"
     id="layer1"
     transform="translate(-69.218743,-102.39121)"><path
       style="fill:#000000;stroke-width:0.264583"
       d="m 79.038134,175.30197 c -0.291042,-0.11862 -1.154245,-0.30144 -1.918229,-0.40627 -0.763985,-0.10483 -1.389063,-0.28903 -1.389063,-0.40934 0,-0.1203 -0.347241,-0.295 -0.771646,-0.38821 -0.424406,-0.0932 -0.837388,-0.34081 -0.917738,-0.55019 -0.08035,-0.20939 -0.274792,-0.38071 -0.432093,-0.38071 -0.374424,0 -2.111856,-1.69082 -2.111856,-2.0552 0,-0.15507 -0.09437,-0.32164 -0.209707,-0.37015 -0.336844,-0.14166 -1.377793,-1.96434 -1.377793,-2.41248 0,-0.22536 -0.148828,-0.45935 -0.330729,-0.51999 -0.466576,-0.15554 -0.487394,-57.8001 -0.02098,-58.08834 0.170363,-0.10529 0.39163,-0.51766 0.491703,-0.91639 0.100073,-0.39872 0.275199,-0.72495 0.389169,-0.72495 0.113969,0 0.281924,-0.29766 0.373233,-0.66146 0.09131,-0.3638 0.282809,-0.66146 0.425558,-0.66146 0.142748,0 0.259542,-0.15213 0.259542,-0.33807 0,-0.64839 2.584198,-2.59258 4.570728,-3.43873 l 1.382397,-0.58882 h 28.17813 28.17813 l 1.98791,0.99901 c 1.93218,0.97101 3.96521,2.54487 3.96521,3.06964 0,0.14255 0.14883,0.41832 0.33073,0.61284 0.44359,0.47435 1.15004,1.93293 1.6411,3.3883 0.3489,1.03408 0.40223,4.79788 0.40557,28.62553 0.002,15.67074 -0.0967,27.49708 -0.23074,27.57989 -0.12902,0.0797 -0.31627,0.58043 -0.41612,1.11263 -0.17658,0.94125 -0.71698,1.98427 -1.39638,2.69512 -0.18379,0.19229 -0.33416,0.45622 -0.33416,0.58649 0,0.37494 -1.76938,2.04469 -2.36805,2.23469 -0.2983,0.0947 -0.54236,0.27372 -0.54236,0.39787 0,0.12416 -0.35719,0.30419 -0.79375,0.40007 -0.43657,0.0959 -0.79375,0.27122 -0.79375,0.38963 0,0.11841 -0.74414,0.37578 -1.65365,0.57193 -1.3142,0.28344 -7.03042,0.36754 -27.8474,0.40971 -14.406566,0.0292 -26.431878,-0.044 -26.72292,-0.16259 z m 53.925286,-3.3714 c 2.18587,-0.70536 4.08023,-1.99857 4.48654,-3.0628 0.0972,-0.25466 0.29418,-0.46302 0.43768,-0.46302 0.14349,0 0.33932,-0.41803 0.43517,-0.92897 0.0958,-0.51092 0.27984,-0.9942 0.40886,-1.07394 0.33824,-0.20904 0.30836,-55.14709 -0.03,-55.14709 -0.14552,0 -0.26458,-0.22839 -0.26458,-0.50753 0,-0.97553 -0.27945,-1.35522 -0.79454,-1.07955 -0.26239,0.14043 -14.17531,13.95407 -30.9176,30.697 -20.51674,20.51751 -30.391972,30.56823 -30.291571,30.82987 0.08193,0.21351 0.614856,0.46269 1.18428,0.55375 0.569425,0.091 1.099237,0.26897 1.177361,0.39538 0.07884,0.12756 11.857069,0.22983 26.4689,0.22983 23.89534,0 26.45364,-0.0409 27.69949,-0.44293 z m -32.79503,-6.44339 c -1.301754,-0.18424 -2.563914,-0.73768 -3.587374,-1.573 -0.5641,-0.46041 -0.68099,-3.13736 -0.15976,-3.6586 0.50981,-0.5098 1.61857,-0.3673 2.33888,0.3006 0.36662,0.33996 1.19884,0.78739 1.849384,0.99429 1.02601,0.32633 1.3406,0.32538 2.37341,-0.007 1.93633,-0.62345 2.61815,-1.51581 3.09565,-4.05156 0.63011,-3.34626 1.05882,-4.3292 2.55543,-5.85912 1.48693,-1.52001 2.84993,-2.27787 4.09673,-2.27787 0.44236,0 0.88491,-0.13045 0.98345,-0.28988 0.10047,-0.16257 0.5431,-0.22943 1.0078,-0.15225 2.02565,0.33646 3.48136,0.73495 3.56267,0.97525 0.0485,0.14335 0.22767,0.26063 0.39814,0.26063 0.25803,0 2.17703,1.91441 3.23671,3.22898 0.31509,0.39088 0.84119,2.53128 1.13432,4.61486 0.18268,1.29848 0.44541,1.83335 1.3524,2.75318 0.56758,0.57562 2.81236,1.27492 3.23404,1.00747 0.19018,-0.12062 0.59449,-0.22113 0.89847,-0.22336 1.30769,-0.01 3.28377,-2.5216 3.28377,-4.17438 0,-0.87218 0.68917,-1.36708 1.91823,-1.3775 1.27872,-0.0108 2.05052,0.72701 2.05052,1.96034 0,0.50074 -0.10342,0.97435 -0.22983,1.05247 -0.1264,0.0781 -0.3064,0.62093 -0.4,1.20624 -0.0936,0.58531 -0.28783,1.0642 -0.43163,1.0642 -0.1438,0 -0.26145,0.13884 -0.26145,0.30853 0,0.30165 -0.23191,0.60252 -1.29168,1.67584 -1.32395,1.3409 -2.46144,1.9432 -4.17882,2.21272 -1.58586,0.24887 -4.83114,-0.0463 -5.10134,-0.46393 -0.0791,-0.12224 -0.39208,-0.29964 -0.69554,-0.39421 -0.71922,-0.22415 -2.49096,-1.80401 -2.49096,-2.22119 0,-0.17821 -0.11104,-0.32401 -0.24675,-0.32401 -0.13572,0 -0.33036,-0.26789 -0.43254,-0.59531 -0.10218,-0.32742 -0.30589,-0.67244 -0.4527,-0.76671 -0.14681,-0.0943 -0.32501,-1.07653 -0.39601,-2.18281 -0.071,-1.10628 -0.23249,-2.01142 -0.35888,-2.01142 -0.12638,0 -0.22978,-0.22814 -0.22978,-0.50698 0,-0.72204 -1.89277,-2.66802 -2.59507,-2.66802 -0.31896,0 -0.57993,-0.11906 -0.57993,-0.26458 0,-0.14552 -0.41672,-0.26459 -0.92605,-0.26459 -0.50932,0 -0.92604,0.11907 -0.92604,0.26459 0,0.14552 -0.25586,0.26458 -0.56858,0.26458 -0.78505,0 -2.35339,1.68855 -2.66061,2.86456 -0.13965,0.53454 -0.36116,1.73753 -0.49224,2.6733 -0.13108,0.93577 -0.34337,1.7692 -0.47174,1.85208 -0.12839,0.0829 -0.3193,0.42574 -0.42426,0.76192 -0.26246,0.84066 -2.38574,2.91528 -3.19034,3.11722 -0.36239,0.0909 -0.65889,0.26423 -0.65889,0.38506 0,0.12083 -0.56555,0.29301 -1.25677,0.38263 -0.69123,0.0896 -1.4949,0.19813 -1.78594,0.24113 -0.29104,0.043 -1.14087,-0.008 -1.8885,-0.11422 z m 4.79463,-27.68115 c 22.09029,-22.08947 30.76528,-30.92618 30.51561,-31.08449 -0.19185,-0.12165 -0.49765,-0.22301 -0.67955,-0.22524 -0.18191,-0.002 -0.33073,-0.11772 -0.33073,-0.25664 0,-0.13893 -0.44649,-0.32609 -0.99219,-0.41592 -0.5457,-0.0898 -1.23031,-0.2763 -1.52136,-0.41439 -0.32642,-0.15487 -10.51431,-0.21893 -26.59062,-0.16719 -25.990326,0.0836 -28.518363,0.17051 -28.79549,0.98946 -0.04851,0.14335 -0.250951,0.26063 -0.449874,0.26063 -0.198924,0 -0.456892,0.14883 -0.573264,0.33073 -0.116371,0.1819 -0.441753,0.45775 -0.723069,0.61299 -0.281316,0.15525 -0.638504,0.50969 -0.79375,0.78766 -0.155246,0.27796 -0.416555,0.62719 -0.580686,0.77607 -0.164132,0.14887 -0.49495,0.80646 -0.735152,1.4613 -0.397351,1.08327 -0.430086,3.68371 -0.363038,28.83958 0.0698,26.18698 0.0992,27.69443 0.556093,28.50886 0.26532,0.47294 0.642202,0.85989 0.837516,0.85989 0.195315,0 14.244114,-13.88848 31.219554,-30.8633 z M 76.329731,125.82466 c -0.888005,-0.74093 -1.183169,-1.74098 -0.863854,-2.92682 0.148891,-0.55294 0.457749,-1.07712 0.686352,-1.16484 0.600921,-0.2306 34.317511,-0.18877 34.651241,0.043 0.91783,0.63737 1.63326,2.97251 0.91071,2.97251 -0.14552,0 -0.26458,0.18974 -0.26458,0.42165 0,0.2319 -0.23813,0.48391 -0.52917,0.56002 -0.29104,0.0761 -0.52917,0.24356 -0.52917,0.37211 0,0.13287 -7.22105,0.22992 -16.734897,0.22492 -15.939606,-0.008 -16.763017,-0.0323 -17.326632,-0.50254 z m -0.130622,-9.7242 c -0.640333,-0.16784 -1.073643,-1.9023 -0.725054,-2.90226 0.603201,-1.73034 0.04039,-1.67887 18.355422,-1.67887 9.407033,0 16.561783,0.10097 16.561783,0.23373 0,0.12855 0.23813,0.29599 0.52917,0.3721 0.29104,0.0761 0.52917,0.32812 0.52917,0.56003 0,0.2319 0.11906,0.42164 0.26458,0.42164 0.55351,0 0.26694,1.72266 -0.40758,2.4501 l -0.67217,0.7249 -16.988775,-0.0307 c -9.343824,-0.0169 -17.194769,-0.0847 -17.446546,-0.15068 z"
       id="path949" /></g></svg>
