<?xml version="1.0" encoding="UTF-8" standalone="no"?>
<!-- Created with Inkscape (http://www.inkscape.org/) -->

<svg
   width="119.24937mm"
   height="119.3083mm"
   viewBox="0 0 119.24937 119.3083"
   version="1.1"
   id="svg673"
   xml:space="preserve"
   inkscape:version="1.2.1 (9c6d41e410, 2022-07-14)"
   sodipodi:docname="energy_meter.svg"
   xmlns:inkscape="http://www.inkscape.org/namespaces/inkscape"
   xmlns:sodipodi="http://sodipodi.sourceforge.net/DTD/sodipodi-0.dtd"
   xmlns="http://www.w3.org/2000/svg"
   xmlns:svg="http://www.w3.org/2000/svg"><sodipodi:namedview
     id="namedview675"
     pagecolor="#ffffff"
     bordercolor="#666666"
     borderopacity="1.0"
     inkscape:showpageshadow="2"
     inkscape:pageopacity="0.0"
     inkscape:pagecheckerboard="0"
     inkscape:deskcolor="#d1d1d1"
     inkscape:document-units="mm"
     showgrid="false"
     inkscape:zoom="0.69575617"
     inkscape:cx="105.64046"
     inkscape:cy="238.58933"
     inkscape:window-width="1280"
     inkscape:window-height="961"
     inkscape:window-x="-8"
     inkscape:window-y="-8"
     inkscape:window-maximized="1"
     inkscape:current-layer="layer1" /><defs
     id="defs670" /><g
     inkscape:label="Layer 1"
     inkscape:groupmode="layer"
     id="layer1"
     transform="translate(-53.688988,-85.499062)"><path
       style="fill:#000000;stroke-width:0.148566"
       d="m 111.25243,204.7336 c -12.959305,-0.4854 -25.102811,-4.99931 -35.252595,-13.10387 -2.467344,-1.97016 -6.333099,-5.75319 -8.371769,-8.19261 -11.062647,-13.23728 -15.829721,-30.27782 -13.257023,-47.38899 1.325323,-8.81481 4.867166,-17.66445 10.038026,-25.08099 3.698433,-5.30464 9.479691,-11.086244 14.778143,-14.778994 7.429709,-5.17814 16.260039,-8.7123 25.082598,-10.03879 3.28979,-0.49462 5.52667,-0.65254 9.21112,-0.65027 13.59743,0.008 26.4193,4.51299 37.1416,13.04876 2.49654,1.987434 7.18237,6.660614 9.14882,9.124104 7.52457,9.42651 11.8773,20.22346 12.99693,32.23891 0.22473,2.41164 0.22713,8.0346 0.005,10.39965 -1.12943,11.99497 -5.47332,22.79892 -12.91744,32.1277 -1.85009,2.31848 -6.4251,6.95375 -8.63849,8.75228 -8.96476,7.28446 -19.21611,11.68979 -30.53039,13.1199 -1.89438,0.23945 -6.53449,0.53801 -7.65117,0.4923 -0.3677,-0.0151 -1.16996,-0.0462 -1.7828,-0.0691 z m 4.67984,-2.57535 c 3.36138,-0.176 5.6074,-0.44959 8.61686,-1.04961 14.18402,-2.82798 26.78461,-11.00378 35.31766,-22.91561 7.38948,-10.31545 11.13221,-23.05332 10.50398,-35.74893 -0.1673,-3.38075 -0.44253,-5.57616 -1.10915,-8.84731 -3.25347,-15.96501 -13.28357,-29.80744 -27.5674,-38.045484 -9.38542,-5.41294 -20.16628,-7.99924 -31.14658,-7.47199 -12.40144,0.59549 -24.02621,5.11952 -33.714648,13.120804 -2.062538,1.70336 -5.707826,5.34865 -7.411191,7.41119 -11.085125,13.42255 -15.469266,30.72825 -12.088173,47.71613 5.079256,25.5201 27.156048,44.57016 53.101692,45.82143 1.30738,0.0631 2.44391,0.12421 2.52563,0.13591 0.0817,0.0117 1.41881,-0.0453 2.97132,-0.12653 z M 96.54436,179.42952 c -0.285972,-0.28597 -0.297133,-0.49522 -0.297133,-5.57124 v -5.27411 h 2.822762 2.822761 v 5.20658 5.20657 l -0.36466,0.36467 c -0.35375,0.35375 -0.42936,0.36466 -2.525632,0.36466 -1.962877,0 -2.188202,-0.0272 -2.458098,-0.29713 z m 14.28827,-0.0467 c -0.31903,-0.33958 -0.32303,-0.40863 -0.32303,-5.57124 v -5.22739 h 2.82276 2.82277 v 5.24822 5.2482 l -0.34386,0.32303 c -0.32042,0.30103 -0.49071,0.32303 -2.49973,0.32303 -2.06142,0 -2.17003,-0.015 -2.47891,-0.34385 z m 14.30401,-0.0208 -0.36467,-0.36466 v -5.20658 -5.20657 h 2.82277 2.82276 v 5.27411 c 0,5.07601 -0.0112,5.28526 -0.29714,5.57123 -0.26989,0.2699 -0.49521,0.29714 -2.45809,0.29714 -2.09627,0 -2.17189,-0.0109 -2.52563,-0.36467 z M 89.4726,166.742 88.967475,166.23687 v -3.20903 -3.20904 h 24.364885 24.36489 v 3.20904 3.20903 l -0.50512,0.50513 -0.50513,0.50513 H 113.33236 89.977726 Z m -3.651803,-8.49415 c -1.019689,-0.31499 -2.253917,-1.49702 -2.639667,-2.52802 -0.294354,-0.78674 -0.304878,-1.10697 -0.304878,-9.27757 v -8.46271 h 30.459588 30.45959 l -0.0406,8.65399 c -0.0406,8.65372 -0.0406,8.65401 -0.37735,9.33738 -0.42917,0.871 -1.22878,1.6706 -2.09978,2.09978 l -0.68338,0.33673 -27.03909,0.0276 c -23.219434,0.0237 -27.137305,-0.003 -27.734413,-0.18718 z m 28.456933,-7.08067 c 1.19599,-1.93935 2.17452,-3.56058 2.17452,-3.60274 0,-0.0422 -0.53483,-0.0767 -1.18852,-0.0767 -1.10773,0 -1.18854,-0.0212 -1.18854,-0.31147 0,-0.17131 0.20316,-1.51735 0.45146,-2.99119 0.24831,-1.47383 0.43216,-2.73029 0.40856,-2.79212 -0.0236,-0.0618 -1.09869,1.60176 -2.38909,3.69687 l -2.34619,3.8093 1.1948,0.0431 c 1.12111,0.0405 1.1947,0.0634 1.19308,0.37142 -0.001,0.18055 -0.20073,1.49823 -0.44398,2.92818 -0.24325,1.42995 -0.44304,2.69835 -0.44398,2.81867 -0.002,0.28983 0.003,0.28179 2.57788,-3.89342 z M 82.876252,125.45215 c 0,-13.04652 -0.08067,-12.22393 1.338138,-13.64422 1.43523,-1.43673 -1.3056,-1.31317 29.12788,-1.31317 30.46604,0 27.65114,-0.12868 29.12011,1.33121 1.40466,1.39597 1.32609,0.58866 1.32609,13.62618 v 11.33886 H 113.33236 82.876252 Z m 14.708073,-1.06643 v -5.42267 h -2.525629 -2.525628 v 5.42267 5.42268 h 2.525628 2.525629 z m -3.617698,2.06159 c -0.45159,-0.45159 -0.689071,-1.18769 -0.689071,-2.13587 0,-1.89032 1.042551,-2.91206 2.432247,-2.3837 1.17438,0.4465 1.497028,3.27372 0.502829,4.40605 -0.38599,0.43962 -0.531336,0.50328 -1.149067,0.50328 -0.565113,0 -0.785482,-0.0783 -1.096938,-0.38976 z m 1.603628,-0.5347 c 0.271015,-0.38693 0.327142,-2.6301 0.07748,-3.0966 -0.221463,-0.41381 -0.970176,-0.38478 -1.209954,0.0469 -0.104407,0.18798 -0.187975,0.8639 -0.190935,1.54435 -0.0043,0.98633 0.04707,1.2679 0.277753,1.52281 0.365583,0.40396 0.755032,0.39746 1.045656,-0.0175 z m 9.293825,-1.52689 v -5.42267 h -2.52563 -2.525629 v 5.42267 5.42268 h 2.525629 2.52563 z m -3.60354,2.04279 c -0.96666,-1.01092 -0.83465,-3.67303 0.21872,-4.41083 0.50552,-0.35409 1.35643,-0.29432 1.8616,0.13075 1.00509,0.84572 1.05171,3.43316 0.0781,4.33545 -0.5674,0.52585 -1.6287,0.49862 -2.15845,-0.0554 z m 1.57844,-0.41034 c 0.44233,-0.44232 0.49875,-2.43562 0.0905,-3.19839 -0.24169,-0.4516 -1.00506,-0.39385 -1.189,0.0899 -0.23768,0.62515 -0.18023,2.62223 0.0864,3.00288 0.26816,0.38285 0.69073,0.42692 1.01209,0.10556 z m 9.41813,-1.66959 0.039,-5.38553 h -2.60177 -2.60176 v 5.42618 5.42618 l 2.56277,-0.0406 2.56277,-0.0407 z m -3.07623,2.43191 c -0.80241,-0.26656 -1.10864,-0.82085 -1.17455,-2.12596 -0.0966,-1.91343 0.31657,-2.69493 1.49442,-2.82649 1.19776,-0.1338 1.90025,0.81173 1.90025,2.55768 0,1.01153 -0.23211,1.79241 -0.63114,2.12331 -0.40523,0.33605 -1.05856,0.44767 -1.58898,0.27146 z m 0.83659,-0.65441 c 0.30415,-0.1934 0.49221,-0.90792 0.48994,-1.86146 -0.003,-1.17817 -0.23225,-1.64759 -0.83419,-1.70666 -0.38863,-0.0381 -0.48639,0.0231 -0.64397,0.40356 -0.24117,0.58223 -0.15441,2.69976 0.12437,3.03568 0.2164,0.26074 0.57284,0.31392 0.86385,0.12888 z m 9.51939,-1.7775 0.039,-5.38553 h -2.60177 -2.60176 v 5.32363 c 0,2.928 0.0461,5.36975 0.10251,5.42613 0.0564,0.0564 1.20962,0.0842 2.56277,0.0619 l 2.46026,-0.0406 z m -3.57379,2.18903 c -0.54366,-0.42764 -0.74614,-1.18582 -0.66964,-2.50741 0.0907,-1.56657 0.60204,-2.24439 1.69318,-2.24439 1.12256,0 1.69415,0.87472 1.69415,2.5926 0,1.22422 -0.21159,1.83213 -0.77505,2.22679 -0.47378,0.33185 -1.47932,0.29687 -1.94264,-0.0676 z m 1.63467,-0.74051 c 0.23568,-0.46752 0.24844,-2.38694 0.0192,-2.89005 -0.19718,-0.43277 -0.85841,-0.5246 -1.16008,-0.16111 -0.22595,0.27225 -0.37315,1.80684 -0.24092,2.51167 0.1862,0.99254 0.99434,1.30807 1.38179,0.53949 z m 9.25417,-1.41138 v -5.42267 h -2.52563 -2.52563 v 5.42267 5.42268 h 2.52563 2.52563 z m -3.60617,2.09816 c -0.97241,-0.9012 -0.93877,-3.47979 0.0563,-4.31711 0.75323,-0.6338 1.97016,-0.3941 2.41566,0.47581 0.56079,1.09502 0.41273,3.02866 -0.2879,3.75996 -0.55595,0.58028 -1.60361,0.6193 -2.18408,0.0813 z m 1.59209,-0.57127 c 0.16079,-0.22956 0.23128,-0.6794 0.23128,-1.47599 0,-1.50564 -0.15477,-1.90798 -0.73393,-1.90798 -0.62631,0 -0.81445,0.43064 -0.82075,1.87862 -0.005,0.98633 0.047,1.2679 0.27775,1.52281 0.36558,0.40397 0.75503,0.39746 1.04565,-0.0175 z m 9.29383,-1.52689 v -5.42267 h -2.52563 -2.52563 v 5.42267 5.42268 h 2.52563 2.52563 z m -2.92188,2.42259 c -1.05862,-0.27431 -1.56628,-1.65778 -1.24333,-3.38827 0.19894,-1.06596 0.77385,-1.63423 1.65335,-1.63423 1.04836,0 1.76737,1.05771 1.76737,2.59991 0,1.76908 -0.88773,2.75677 -2.17739,2.42259 z m 0.93035,-0.87824 c 0.23069,-0.25491 0.28204,-0.53648 0.27775,-1.52281 -0.003,-0.66553 -0.0843,-1.35214 -0.181,-1.52578 -0.2511,-0.4511 -0.74243,-0.5384 -1.08757,-0.19325 -0.23898,0.23897 -0.28611,0.50095 -0.28611,1.59015 0,0.93981 0.0646,1.39627 0.23127,1.63423 0.29062,0.41492 0.68007,0.42143 1.04566,0.0175 z"
       id="path806" /></g></svg>
