<?xml version="1.0" encoding="UTF-8" standalone="no"?>
<!-- Created with Inkscape (http://www.inkscape.org/) -->

<svg
   width="7.9149132mm"
   height="57.865532mm"
   viewBox="0 0 7.9149132 57.865532"
   version="1.1"
   id="svg5"
   xml:space="preserve"
   inkscape:version="1.2.1 (9c6d41e410, 2022-07-14)"
   sodipodi:docname="grounding_rod.svg"
   xmlns:inkscape="http://www.inkscape.org/namespaces/inkscape"
   xmlns:sodipodi="http://sodipodi.sourceforge.net/DTD/sodipodi-0.dtd"
   xmlns="http://www.w3.org/2000/svg"
   xmlns:svg="http://www.w3.org/2000/svg"><sodipodi:namedview
     id="namedview7"
     pagecolor="#ffffff"
     bordercolor="#666666"
     borderopacity="1.0"
     inkscape:showpageshadow="2"
     inkscape:pageopacity="0.0"
     inkscape:pagecheckerboard="0"
     inkscape:deskcolor="#d1d1d1"
     inkscape:document-units="mm"
     showgrid="false"
     inkscape:zoom="0.98394782"
     inkscape:cx="56.40543"
     inkscape:cy="85.370381"
     inkscape:window-width="1280"
     inkscape:window-height="961"
     inkscape:window-x="-8"
     inkscape:window-y="-8"
     inkscape:window-maximized="1"
     inkscape:current-layer="layer1" /><defs
     id="defs2" /><g
     inkscape:label="Layer 1"
     inkscape:groupmode="layer"
     id="layer1"
     transform="translate(-99.869717,-158.52386)"><path
       style="fill:#000000;stroke-width:0.585099"
       d="m 103.84541,216.26612 c -0.0575,-0.15654 -0.38775,-2.18794 -0.73378,-4.51424 -0.34605,-2.3263 -0.81807,-4.48049 -1.04895,-4.78709 -0.65205,-0.86593 0.41192,-3.2127 2.27512,-5.01815 1.75402,-1.69966 2.39206,-1.40822 1.61977,0.73986 -0.25107,0.69835 -0.7238,3.86506 -1.05051,7.03713 -0.56916,5.526 -0.83442,7.16067 -1.06165,6.54249 z m -0.17592,-16.36478 c -0.75496,0.62974 -1.09913,0.47333 -1.1011,-0.50037 -0.002,-0.77906 -0.21744,-1.67544 -0.47972,-1.99197 -0.72264,-0.87213 0.30155,-3.2004 2.22976,-5.06884 1.8613,-1.80361 2.38611,-1.39169 1.47075,1.15436 -0.33304,0.92634 -0.56164,2.1832 -0.508,2.79305 0.13388,1.52221 -0.31745,2.53419 -1.61169,3.61377 z m -0.0194,-9.60649 c -0.75496,0.62974 -1.09913,0.47334 -1.1011,-0.50037 -0.002,-0.77905 -0.21744,-1.67544 -0.47972,-1.99197 -0.72264,-0.87213 0.30155,-3.20039 2.22976,-5.06884 1.8613,-1.80361 2.38611,-1.39169 1.47075,1.15437 -0.33304,0.92633 -0.56164,2.1832 -0.508,2.79304 0.13388,1.52222 -0.31745,2.53419 -1.61169,3.61377 z m -0.0194,-9.60648 c -0.75496,0.62974 -1.09913,0.47333 -1.1011,-0.50037 -0.002,-0.77906 -0.21744,-1.67544 -0.47972,-1.99197 -0.72264,-0.87213 0.30155,-3.2004 2.22976,-5.06884 1.8613,-1.80361 2.38611,-1.39169 1.47075,1.15437 -0.33304,0.92633 -0.56164,2.18319 -0.508,2.79304 0.13388,1.52221 -0.31745,2.53419 -1.61169,3.61377 z m -0.004,-9.59867 c -0.98771,0.80462 -1.09955,0.6794 -1.14389,-1.28065 -0.027,-1.19485 -0.62604,-4.1813 -1.33112,-6.63655 l -1.281963,-4.46408 1.407673,-0.10443 c 0.86061,-0.0638 1.51909,0.47911 1.69437,1.39711 0.34532,1.80863 1.47565,1.6873 1.77515,-0.19055 0.11919,-0.74727 0.84315,-1.31942 1.62627,-1.28523 l 1.41145,0.0616 -1.14271,4.13375 c -0.6285,2.27356 -1.31771,4.88602 -1.5316,5.80547 -0.21388,0.91946 -0.88152,2.07305 -1.48363,2.56354 z"
       id="path302" /></g></svg>
