<?xml version="1.0" encoding="UTF-8" standalone="no"?>
<!-- Created with Inkscape (http://www.inkscape.org/) -->

<svg
   width="22.36091mm"
   height="22.57777mm"
   viewBox="0 0 22.36091 22.57777"
   version="1.1"
   id="svg5"
   xml:space="preserve"
   inkscape:version="1.2.1 (9c6d41e410, 2022-07-14)"
   sodipodi:docname="oil_station.svg"
   xmlns:inkscape="http://www.inkscape.org/namespaces/inkscape"
   xmlns:sodipodi="http://sodipodi.sourceforge.net/DTD/sodipodi-0.dtd"
   xmlns="http://www.w3.org/2000/svg"
   xmlns:svg="http://www.w3.org/2000/svg"><sodipodi:namedview
     id="namedview7"
     pagecolor="#ffffff"
     bordercolor="#666666"
     borderopacity="1.0"
     inkscape:showpageshadow="2"
     inkscape:pageopacity="0.0"
     inkscape:pagecheckerboard="0"
     inkscape:deskcolor="#d1d1d1"
     inkscape:document-units="mm"
     showgrid="false"
     inkscape:zoom="1.9678956"
     inkscape:cx="74.445005"
     inkscape:cy="47.766761"
     inkscape:window-width="1280"
     inkscape:window-height="961"
     inkscape:window-x="-8"
     inkscape:window-y="-8"
     inkscape:window-maximized="1"
     inkscape:current-layer="layer1" /><defs
     id="defs2" /><g
     inkscape:label="Layer 1"
     inkscape:groupmode="layer"
     id="layer1"
     transform="translate(-95.134799,-186.83787)"><path
       style="fill:#000000;stroke-width:0.352778"
       d="m 95.176231,209.06286 c -0.119915,-0.19402 0.02947,-0.35277 0.331958,-0.35277 0.37961,0 0.549987,-0.33809 0.549987,-1.09136 0,-0.79468 0.191806,-1.14152 0.705555,-1.27587 0.682112,-0.17838 0.705556,-0.48119 0.705556,-9.11359 v -8.92908 l 0.92952,-0.73116 c 0.849038,-0.66786 1.400233,-0.73116 6.366043,-0.73116 5.30173,0 5.45798,0.0215 6.30242,0.8659 0.83007,0.83008 0.86591,1.05471 0.86591,5.42749 0,4.47639 0.0165,4.57236 0.88194,5.13944 0.78759,0.51605 0.88195,0.81771 0.88195,2.8196 0,1.61501 0.15621,2.37137 0.55874,2.70544 1.02037,0.84684 1.72178,-0.0354 1.84162,-2.31642 0.10319,-1.96413 0.0592,-2.08209 -1.14653,-3.07597 -1.09458,-0.90225 -1.25383,-1.2333 -1.25383,-2.60641 0,-1.17276 0.15705,-1.63301 0.61736,-1.80924 0.87503,-0.335 1.76214,-1.51637 1.99138,-2.65192 0.26866,-1.33083 0.78639,-1.22178 0.83745,0.17639 0.023,0.63059 0.14392,1.79038 0.26864,2.57731 0.17121,1.08024 0.0896,1.54458 -0.33292,1.89528 -0.44712,0.37107 -0.55969,1.22211 -0.55969,4.2313 0,3.9753 -0.22338,4.61347 -1.61486,4.61347 -1.19063,0 -1.72091,-0.96048 -1.91292,-3.46483 -0.10668,-1.39141 -0.35066,-2.35803 -0.61736,-2.4459 -0.33394,-0.11002 -0.44097,0.7509 -0.44097,3.54713 0,3.39574 0.0567,3.70725 0.70556,3.87693 0.51375,0.13435 0.70555,0.48119 0.70555,1.27587 0,0.75327 0.17038,1.09136 0.54999,1.09136 0.30249,0 0.45187,0.15875 0.33196,0.35277 -0.13644,0.22077 -3.70089,0.35278 -9.525,0.35278 -5.824119,0 -9.388571,-0.13201 -9.525009,-0.35278 z M 111.22762,197.4412 c 0,-10.80757 0.61267,-9.89778 -6.6653,-9.89778 -4.24794,0 -5.204689,0.0973 -5.742338,0.58384 -0.592024,0.53578 -0.64514,1.30547 -0.64514,9.34861 v 8.76477 h 6.526398 6.52638 z m -9.62436,1.64102 c -0.10347,-0.26965 -0.0601,-0.69746 0.0964,-0.95067 0.39573,-0.64031 1.49297,-0.14582 1.3479,0.60745 -0.14666,0.76156 -1.18873,1.0092 -1.4443,0.34322 z m 2.33451,-0.0972 c -0.11669,-0.30409 -0.0312,-0.73385 0.18998,-0.95502 0.49651,-0.49652 1.67277,0.51805 1.29996,1.12126 -0.3521,0.56972 -1.24579,0.47001 -1.48994,-0.16624 z m 2.46944,0 c -0.32103,-0.8366 0.43138,-1.42663 1.10565,-0.86703 0.41783,0.34677 0.45312,0.57007 0.14814,0.93754 -0.52828,0.63654 -0.99249,0.61043 -1.25379,-0.0705 z m -6.586071,-2.85731 c -0.129352,-0.12935 -0.235186,-1.63189 -0.235186,-3.33898 0,-3.83097 0.0043,-3.83417 5.115287,-3.83417 5.04343,0 5.11527,0.0493 5.11527,3.51134 0,1.52953 -0.0964,3.03206 -0.21413,3.33898 -0.18032,0.46992 -0.95078,0.55802 -4.88009,0.55802 -2.56628,0 -4.7718,-0.10584 -4.901151,-0.23519 z m 5.749631,-2.21107 c 0.5048,-0.94323 0.45668,-1.4343 -0.14055,-1.4343 -0.28829,0 -0.5558,-0.41712 -0.62219,-0.97014 l -0.11647,-0.97014 -0.61252,1.12901 c -0.75152,1.38521 -0.77312,1.8696 -0.0834,1.8696 0.29104,0 0.52917,0.23813 0.52917,0.52917 0,0.74699 0.61214,0.65733 1.04592,-0.1532 z m 10.59574,3.3714 c 0,-0.46132 -0.23812,-1.03638 -0.52916,-1.27792 -0.29104,-0.24155 -0.52917,-0.65786 -0.52917,-0.92514 0,-0.26729 -0.15875,-0.48597 -0.35278,-0.48597 -0.62249,0 -0.40199,2.53069 0.26459,3.03669 0.89154,0.67678 1.14652,0.59946 1.14652,-0.34766 z"
       id="path1528" /></g></svg>
