<?xml version="1.0" encoding="UTF-8" standalone="no"?>
<!-- Created with Inkscape (http://www.inkscape.org/) -->

<svg
   width="135.16127mm"
   height="121.08379mm"
   viewBox="0 0 135.16127 121.08379"
   version="1.1"
   id="svg387"
   xml:space="preserve"
   inkscape:version="1.2.1 (9c6d41e410, 2022-07-14)"
   sodipodi:docname="solar_panel.svg"
   xmlns:inkscape="http://www.inkscape.org/namespaces/inkscape"
   xmlns:sodipodi="http://sodipodi.sourceforge.net/DTD/sodipodi-0.dtd"
   xmlns="http://www.w3.org/2000/svg"
   xmlns:svg="http://www.w3.org/2000/svg"><sodipodi:namedview
     id="namedview389"
     pagecolor="#ffffff"
     bordercolor="#666666"
     borderopacity="1.0"
     inkscape:showpageshadow="2"
     inkscape:pageopacity="0.0"
     inkscape:pagecheckerboard="0"
     inkscape:deskcolor="#d1d1d1"
     inkscape:document-units="mm"
     showgrid="false"
     inkscape:zoom="0.69575617"
     inkscape:cx="170.31829"
     inkscape:cy="310.45359"
     inkscape:window-width="1280"
     inkscape:window-height="961"
     inkscape:window-x="-8"
     inkscape:window-y="-8"
     inkscape:window-maximized="1"
     inkscape:current-layer="layer1" /><defs
     id="defs384" /><g
     inkscape:label="Layer 1"
     inkscape:groupmode="layer"
     id="layer1"
     transform="translate(-36.654493,-66.424814)"><path
       style="fill:#000000;stroke-width:0.264583"
       d="m 79.425375,187.42378 c -0.309337,-0.0621 -0.845118,-0.41413 -1.190624,-0.78232 -0.565367,-0.60248 -0.626235,-0.89875 -0.608606,-2.96247 0.03349,-3.92048 0.624348,-4.52767 7.121615,-7.31842 5.385908,-2.3134 6.620962,-3.09298 7.930152,-5.0056 1.549441,-2.26359 1.729691,-3.1242 1.729691,-8.25853 v -4.59694 h 10.959587 10.95959 l 0.0868,4.96094 c 0.10022,5.73016 0.30847,6.46129 2.51115,8.81613 1.40112,1.49791 2.47907,2.10094 7.76207,4.34228 4.51691,1.91632 5.0343,2.23837 5.83091,3.62955 0.55543,0.96998 0.65138,1.47761 0.65138,3.446 0,2.16988 -0.044,2.3525 -0.73355,3.0427 l -0.73355,0.73427 -25.85707,0.0326 c -14.221388,0.018 -26.110167,-0.0181 -26.419505,-0.0802 z M 47.784547,153.43414 c -0.43456,-0.15975 -1.776063,-1.58776 -3.399362,-3.61854 l -2.681517,-3.35464 49.436859,-0.13229 c 44.554353,-0.11923 49.528313,-0.17407 50.362903,-0.55522 1.34034,-0.61214 2.56496,-1.72257 3.28465,-2.9784 0.34565,-0.60313 5.30156,-16.5365 11.01313,-35.40749 l 10.38469,-34.310896 2.72959,3.39937 c 1.50128,1.86965 2.80496,3.69962 2.89706,4.0666 0.11803,0.47025 -3.01014,11.15901 -10.59521,36.203196 -8.63284,28.50368 -10.89036,35.66686 -11.40784,36.19742 l -0.64514,0.66146 -50.330987,0.0467 c -32.928406,0.0305 -50.579184,-0.0446 -51.048826,-0.21723 z M 37.602688,141.04863 c -1.52063,-0.92719 -1.476965,-1.19623 2.105975,-12.97621 l 3.25921,-10.71563 10.394026,-0.0692 c 8.877508,-0.0591 10.381456,-0.0143 10.307884,0.30723 -0.04738,0.20705 -1.693484,5.68445 -3.658015,12.172 l -3.571875,11.79553 -8.995833,0.001 c -8.45193,7.5e-4 -9.046956,-0.0304 -9.841372,-0.51475 z m 23.996579,0.35711 c 0,-0.26154 6.868171,-22.9367 7.144033,-23.58593 l 0.252955,-0.59531 h 11.250464 c 6.187754,0 11.250464,0.0847 11.250464,0.18826 0,0.10354 -1.631254,5.58042 -3.625006,12.17083 l -3.625009,11.98258 H 72.923219 c -6.228175,0 -11.323952,-0.0722 -11.323952,-0.16043 z m 27.92011,-0.43191 c 0.08274,-0.32906 1.723358,-5.77751 3.645818,-12.10766 l 3.495378,-11.50938 10.565017,-0.0692 c 5.81076,-0.0381 10.64307,0.0215 10.73847,0.13229 0.0954,0.11083 -1.45591,5.55933 -3.44737,12.10777 l -3.62082,11.90624 -10.76347,0.0691 -10.763457,0.0691 z m 26.584053,0.31416 c 0,-0.16171 1.55453,-5.43379 3.45451,-11.71573 1.89998,-6.28195 3.51535,-11.63008 3.5897,-11.88474 0.12622,-0.43229 0.9418,-0.46302 12.2882,-0.46302 6.68415,0 12.153,0.0967 12.153,0.21496 0,0.11823 -1.54961,5.3257 -3.44357,11.57216 -2.3034,7.5968 -3.61983,11.53352 -3.9759,11.88973 -0.51514,0.51535 -0.91189,0.53491 -12.29913,0.60659 -8.49793,0.0535 -11.76681,-0.008 -11.76681,-0.21995 z M 44.668152,111.7344 c 0.1316,-0.40019 1.441046,-4.7162 2.90988,-9.59115 1.468833,-4.874936 2.852816,-9.429076 3.075518,-10.120306 l 0.404912,-1.25677 h 10.297486 c 7.017851,0 10.297486,0.0885 10.297486,0.27791 0,0.15285 -1.376162,4.82606 -3.058134,10.384896 -1.681974,5.55884 -3.118747,10.31534 -3.19283,10.57 -0.125338,0.43085 -0.858562,0.46302 -10.554143,0.46302 H 44.428879 Z m 25.669173,0.66146 c 0.0038,-0.0364 1.472419,-4.88818 3.263722,-10.78177 l 3.256918,-10.715626 11.388055,-0.0689 11.388053,-0.0689 -2.58419,8.5356 c -1.4213,4.694566 -2.90212,9.577386 -3.290706,10.850696 l -0.706517,2.3151 H 81.69159 c -6.24859,0 -11.358009,-0.0298 -11.354265,-0.0661 z m 27.905478,-0.26459 c 0.0629,-0.1819 1.13799,-3.72401 2.388997,-7.87135 1.25101,-4.14735 2.68815,-8.880076 3.19366,-10.517186 l 0.91909,-2.97656 h 10.73738 c 10.09725,0 10.72994,0.0276 10.61255,0.46302 -0.0687,0.25466 -1.54062,5.13623 -3.27101,10.847916 L 119.6773,112.462 h -10.77447 c -8.50421,0 -10.750347,-0.0697 -10.660027,-0.33073 z m 26.638617,-0.0386 c 0.0471,-0.20315 1.5143,-5.08466 3.26055,-10.84781 l 3.175,-10.478436 12.22321,-1e-4 12.22322,-1.1e-4 -0.23927,0.7276 c -0.13161,0.40019 -1.44105,4.7162 -2.90988,9.591146 -1.46884,4.87495 -2.85282,9.42909 -3.07552,10.12031 l -0.40491,1.25677 h -12.16897 c -10.27858,0 -12.15568,-0.0574 -12.08343,-0.36937 z M 52.603435,85.777334 c 0,-0.12786 1.202719,-4.20713 2.67271,-9.06505 1.730345,-5.71831 2.866074,-9.04247 3.221121,-9.42788 l 0.548409,-0.59531 H 69.05372 c 5.504426,0 10.008047,0.0358 10.008047,0.0794 0,0.0437 -1.29662,4.35971 -2.881379,9.59114 l -2.881381,9.51171 -10.347785,0.0692 c -5.822013,0.0389 -10.347787,-0.0325 -10.347787,-0.16327 z m 25.929165,-0.0856 c 0,-0.17466 1.272831,-4.52172 2.828515,-9.66013 l 2.828514,-9.34257 h 11.326694 c 6.229677,0 11.323737,0.0893 11.320127,0.19844 -0.004,0.10914 -1.29208,4.42516 -2.86327,9.59115 l -2.85671,9.39271 -11.291936,0.069 c -8.645828,0.0528 -11.291934,-0.005 -11.291934,-0.24858 z m 27.77184,0.11345 c -0.005,-0.10914 1.27476,-4.45459 2.84428,-9.65655 l 2.85367,-9.45811 10.77346,-7.4e-4 c 8.50256,-5.8e-4 10.74979,0.069 10.66114,0.32999 -0.0978,0.2879 -5.2298,17.28576 -5.59183,18.52083 -0.12637,0.4311 -0.87324,0.46302 -10.83352,0.46302 -5.88379,0 -10.70203,-0.0893 -10.7072,-0.19844 z m 26.66089,0.003 c -0.10708,-0.20325 5.41848,-18.56624 5.74636,-19.09677 0.12232,-0.19792 3.40882,-0.2866 10.62106,-0.2866 8.4073,0 10.6187,0.073 11.34017,0.37447 1.01536,0.42424 1.46922,1.10188 1.46535,2.18782 -0.001,0.40975 -1.10675,4.3764 -2.4562,8.81479 l -2.45354,8.06979 -12.07863,0.0688 c -6.64324,0.0378 -12.1263,-0.0217 -12.18457,-0.13229 z"
       id="path520" /></g></svg>
