<?xml version="1.0" encoding="UTF-8" standalone="no"?>
<!-- Created with Inkscape (http://www.inkscape.org/) -->

<svg
   width="20.998247mm"
   height="27.26259mm"
   viewBox="0 0 20.998247 27.26259"
   version="1.1"
   id="svg530"
   xml:space="preserve"
   inkscape:version="1.2.1 (9c6d41e410, 2022-07-14)"
   sodipodi:docname="trafo.svg"
   xmlns:inkscape="http://www.inkscape.org/namespaces/inkscape"
   xmlns:sodipodi="http://sodipodi.sourceforge.net/DTD/sodipodi-0.dtd"
   xmlns="http://www.w3.org/2000/svg"
   xmlns:svg="http://www.w3.org/2000/svg"><sodipodi:namedview
     id="namedview532"
     pagecolor="#ffffff"
     bordercolor="#666666"
     borderopacity="1.0"
     inkscape:showpageshadow="2"
     inkscape:pageopacity="0.0"
     inkscape:pagecheckerboard="0"
     inkscape:deskcolor="#d1d1d1"
     inkscape:document-units="mm"
     showgrid="false"
     inkscape:zoom="0.49197391"
     inkscape:cx="42.685191"
     inkscape:cy="65.0441"
     inkscape:window-width="1280"
     inkscape:window-height="961"
     inkscape:window-x="-8"
     inkscape:window-y="-8"
     inkscape:window-maximized="1"
     inkscape:current-layer="layer1" /><defs
     id="defs527" /><g
     inkscape:label="Layer 1"
     inkscape:groupmode="layer"
     id="layer1"
     transform="translate(-82.328053,-124.47748)"><path
       style="fill:#000000;stroke-width:0.0846667"
       d="m 85.715629,151.06274 v -0.67734 h 7.111997 7.112 v 0.67734 0.67733 h -7.112 -7.111997 z m 2.032,-1.43934 v -0.42333 h -0.974061 -0.97406 l 0.02156,-8.78417 0.02156,-8.78416 7.006168,-0.0217 7.00617,-0.0217 v 8.80583 8.80582 h -0.97367 -0.97367 v 0.42333 0.42334 h -5.08 -5.079998 z m 0.03541,-1.06739 c 0.166917,-0.0641 0.175787,-0.20261 0.01297,-0.20261 -0.06652,0 -0.180825,-0.0599 -0.254,-0.13304 -0.118958,-0.11896 -0.133048,-0.93042 -0.133048,-7.66234 0,-7.41639 0.0025,-7.53182 0.169333,-7.69862 0.09313,-0.0931 0.245534,-0.16933 0.338672,-0.16933 0.22674,0 0.21345,-0.13291 -0.0385,-0.38485 -0.256562,-0.25656 -0.65749,-0.27384 -0.892848,-0.0385 -0.166919,0.16692 -0.169334,0.28222 -0.169334,8.08566 0,7.80345 0.0024,7.91875 0.169334,8.08567 0.165906,0.16591 0.5315,0.21998 0.797408,0.11794 z m 1.906497,-0.0691 c 0.081,-0.0976 0.0633,-0.12572 -0.0934,-0.14817 -0.4151,-0.0595 -0.40962,0.0517 -0.38756,-7.87167 0.0199,-7.16282 0.0263,-7.42682 0.18196,-7.59883 0.0887,-0.098 0.23158,-0.1782 0.3175,-0.1782 0.20553,0 0.19898,-0.21123 -0.0131,-0.42333 -0.21396,-0.21396 -0.59932,-0.21732 -0.85846,-0.007 l -0.19988,0.16185 v 7.91493 c 0,7.66452 0.005,7.92056 0.16129,8.09314 0.18986,0.2098 0.73608,0.24518 0.89162,0.0578 z m 1.73417,0.0691 c 0.16753,-0.0643 0.17554,-0.20261 0.0117,-0.20261 -0.0672,0 -0.18151,-0.0847 -0.254,-0.18817 -0.11684,-0.16682 -0.1318,-1.02625 -0.1318,-7.57368 0,-5.52649 0.0253,-7.44113 0.10068,-7.60648 0.062,-0.13617 0.19202,-0.23924 0.33867,-0.26857 0.28141,-0.0563 0.304,-0.21441 0.0648,-0.45361 -0.21904,-0.21905 -0.78682,-0.1869 -0.96987,0.0549 -0.10357,0.13683 -0.12196,1.32884 -0.12425,8.05576 -0.003,7.78411 -3.4e-4,7.89755 0.16664,8.0645 0.16591,0.16591 0.5315,0.21998 0.79741,0.11794 z m 1.91192,-0.0756 c 0.088,-0.10599 0.0762,-0.127 -0.0713,-0.127 -0.0972,0 -0.21616,-0.0737 -0.26437,-0.16376 -0.13792,-0.25771 -0.12017,-15.08406 0.0183,-15.27341 0.0583,-0.0797 0.20944,-0.17268 0.33595,-0.20668 0.21268,-0.0572 0.22211,-0.0777 0.12511,-0.27207 -0.13467,-0.26987 -0.49094,-0.39948 -0.79982,-0.29097 -0.45432,0.1596 -0.44997,0.0741 -0.42508,8.36981 0.0214,7.14219 0.0326,7.64767 0.17303,7.86201 0.12019,0.1834 0.21518,0.22907 0.47646,0.22907 0.1868,0 0.37142,-0.0543 0.43175,-0.127 z m 1.80474,0.0264 0.18493,-0.10065 -0.21099,-0.0512 c -0.43327,-0.10509 -0.4245,0.0669 -0.40234,-7.88783 0.0199,-7.16282 0.0263,-7.42682 0.18195,-7.59883 0.0887,-0.098 0.23159,-0.1782 0.3175,-0.1782 0.20553,0 0.19898,-0.21123 -0.0131,-0.42333 -0.23536,-0.23536 -0.63629,-0.21808 -0.89285,0.0385 l -0.20782,0.20782 v 7.8241 c 0,7.78722 8.5e-4,7.82515 0.17548,8.04718 0.1934,0.24587 0.54837,0.29598 0.86726,0.12244 z m 1.78667,0.0493 c 0.16754,-0.0643 0.17554,-0.20261 0.0117,-0.20261 -0.0672,0 -0.18151,-0.0847 -0.254,-0.18817 -0.11688,-0.16686 -0.1318,-1.03466 -0.1318,-7.66233 0,-7.36127 0.003,-7.47672 0.16933,-7.6435 0.0931,-0.0931 0.24553,-0.16933 0.33867,-0.16933 0.0931,0 0.16933,-0.0173 0.16933,-0.0384 0,-0.13988 -0.21886,-0.47396 -0.33455,-0.51068 -0.24924,-0.0791 -0.70968,0.0186 -0.82395,0.17491 -0.0903,0.12354 -0.1115,1.65207 -0.1115,8.05264 0,7.78726 0.002,7.90257 0.16933,8.06948 0.16591,0.16591 0.5315,0.21998 0.79741,0.11794 z m 2.16593,-0.0756 c 0.088,-0.10599 0.0762,-0.127 -0.0713,-0.127 -0.0972,0 -0.21617,-0.0737 -0.26437,-0.16376 -0.13792,-0.25771 -0.12017,-15.08406 0.0183,-15.27341 0.0583,-0.0797 0.20944,-0.17268 0.33596,-0.20668 0.21268,-0.0572 0.22211,-0.0777 0.1251,-0.27207 -0.24187,-0.48472 -0.9566,-0.43108 -1.13371,0.0851 -0.13446,0.39189 -0.15553,15.27549 -0.0221,15.63484 0.0487,0.13109 0.15119,0.28597 0.22785,0.34418 0.1917,0.14557 0.65636,0.13303 0.78434,-0.0212 z m -16.74329,-8.53016 0.02162,-7.5565 1.418167,-0.0232 1.418167,-0.0232 v 7.57971 7.57972 h -1.439788 -1.439789 z m 18.097954,-0.0212 v -7.57767 h 1.43934 1.43933 v 7.57767 7.57767 h -1.43933 -1.43934 z m -15.606888,-8.98878 c -0.03105,-0.031 -0.05638,-0.13582 -0.05631,-0.23283 8.5e-5,-0.15401 -0.0509,-0.17639 -0.402166,-0.17639 h -0.402304 v -0.33867 -0.33866 l 8.873724,-0.0216 8.873724,-0.0216 -0.0261,0.36023 -0.0261,0.36022 -0.39686,0.0256 c -0.33474,0.0216 -0.401,0.0547 -0.42333,0.21167 -0.0218,0.15325 -0.09,0.19067 -0.38631,0.21211 -0.33632,0.0243 -0.35983,0.0119 -0.35983,-0.1905 0,-0.21529 -0.004,-0.21654 -0.719674,-0.21654 -0.7112,0 -0.71967,0.002 -0.71967,0.21167 0,0.19442 -0.031,0.21167 -0.381,0.21167 -0.34995,0 -0.381,-0.0173 -0.381,-0.21167 0,-0.20918 -0.008,-0.21167 -0.71966,-0.21167 -0.7112,0 -0.71967,0.002 -0.71967,0.21167 0,0.19442 -0.0311,0.21167 -0.381,0.21167 -0.34996,0 -0.381,-0.0173 -0.381,-0.21167 0,-0.20918 -0.008,-0.21167 -0.71967,-0.21167 -0.71551,0 -0.71966,0.001 -0.71966,0.21654 0,0.20238 -0.0235,0.21483 -0.35984,0.1905 -0.29913,-0.0216 -0.3644,-0.0582 -0.38689,-0.21654 -0.0254,-0.1791 -0.0669,-0.1905 -0.69261,-0.1905 -0.62574,0 -0.66717,0.0114 -0.69261,0.1905 -0.0225,0.15837 -0.0878,0.19489 -0.38689,0.21654 -0.33375,0.0242 -0.35983,0.0108 -0.35983,-0.18428 0,-0.20534 -0.017,-0.21096 -0.71986,-0.2377 l -0.71987,-0.0274 1.7e-4,0.23283 c 1.7e-4,0.21954 -0.0216,0.23284 -0.3808,0.23284 -0.34996,0 -0.381,-0.0173 -0.381,-0.21167 0,-0.20918 -0.008,-0.21167 -0.71967,-0.21167 -0.7112,0 -0.719666,0.002 -0.719666,0.21167 0,0.19442 -0.03104,0.21167 -0.381,0.21167 -0.35924,0 -0.380989,-0.0133 -0.380803,-0.23284 l 1.69e-4,-0.23283 -0.719864,0.0274 c -0.698074,0.0266 -0.719864,0.0336 -0.719864,0.23283 0,0.18175 -0.03743,0.20545 -0.324556,0.20545 -0.178506,0 -0.349956,-0.0254 -0.381,-0.0564 z m 3.732384,-1.77787 c -0.30807,-0.0524 -0.29662,-0.18916 0.0212,-0.25272 0.1397,-0.0279 0.254,-0.0984 0.254,-0.15663 0,-0.0582 -0.1143,-0.12869 -0.254,-0.15663 -0.31799,-0.0636 -0.3304,-0.20433 -0.0212,-0.23991 0.27133,-0.0312 0.31894,-0.26294 0.0635,-0.30902 -0.30844,-0.0556 -0.33899,-0.17914 -0.0582,-0.2353 0.34068,-0.0681 0.34973,-0.25581 0.0159,-0.32914 -0.32729,-0.0719 -0.32415,-0.17647 0.007,-0.24276 0.29515,-0.059 0.29666,-0.23582 0.003,-0.30524 -0.25437,-0.06 -0.23611,-0.20755 0.0298,-0.24079 0.29581,-0.037 0.26946,-0.24397 -0.0397,-0.31188 -0.1397,-0.0307 -0.254,-0.0878 -0.254,-0.127 0,-0.0392 0.1143,-0.0963 0.254,-0.127 0.30916,-0.0679 0.33551,-0.27489 0.0397,-0.31187 -0.25413,-0.0318 -0.28733,-0.18485 -0.0483,-0.2225 0.0956,-0.0151 0.1788,-0.10443 0.19385,-0.2082 0.0164,-0.113 0.10649,-0.20042 0.23804,-0.23097 0.17206,-0.0399 0.21659,-0.10793 0.23795,-0.3633 0.0248,-0.29645 0.0427,-0.31416 0.3175,-0.31416 0.28245,0 0.29122,0.01 0.29122,0.33278 0,0.28064 0.0298,0.33702 0.1905,0.35983 0.12242,0.0174 0.20017,0.0951 0.21755,0.21756 0.0194,0.1364 0.0841,0.1905 0.22784,0.1905 0.30671,0 0.34136,0.16438 0.047,0.22324 -0.31306,0.0626 -0.34148,0.26099 -0.0479,0.33466 0.11642,0.0292 0.21167,0.083 0.21167,0.11943 0,0.0365 -0.0953,0.0902 -0.21167,0.11944 -0.29963,0.0752 -0.26259,0.27247 0.0635,0.33818 0.21603,0.0435 0.24787,0.0728 0.14817,0.13629 -0.0699,0.0445 -0.19368,0.0814 -0.27517,0.0821 -0.2499,0.002 -0.1644,0.23262 0.127,0.3423 l 0.27517,0.10357 -0.27517,0.0863 c -0.34688,0.10879 -0.35451,0.27877 -0.0156,0.34656 0.29722,0.0594 0.25838,0.22324 -0.0529,0.22324 -0.24178,0 -0.28629,0.23363 -0.0585,0.30712 0.38938,0.12561 0.39822,0.14126 0.127,0.22505 -0.34797,0.10749 -0.35426,0.28367 -0.0128,0.35867 0.1956,0.043 0.23793,0.0821 0.16634,0.15365 -0.0977,0.0977 -1.69538,0.1607 -2.14321,0.0845 z m 3.302,-0.004 c -0.30445,-0.0461 -0.29578,-0.15485 0.0212,-0.26534 0.1397,-0.0487 0.254,-0.11156 0.254,-0.13968 0,-0.0281 -0.1143,-0.091 -0.254,-0.13969 -0.32513,-0.11334 -0.32264,-0.20642 0.007,-0.2724 0.31658,-0.0633 0.29057,-0.25355 -0.04,-0.29252 -0.27303,-0.0322 -0.25241,-0.20175 0.0327,-0.26906 0.29633,-0.07 0.29877,-0.23071 0.004,-0.29535 -0.33139,-0.0728 -0.33019,-0.17714 0.003,-0.24374 0.33242,-0.0665 0.28379,-0.23321 -0.0977,-0.33497 -0.30272,-0.0807 -0.2818,-0.10837 0.19626,-0.25921 0.22809,-0.072 0.17597,-0.20183 -0.10584,-0.26373 -0.3264,-0.0717 -0.32445,-0.18274 0.004,-0.25498 0.32523,-0.0714 0.28286,-0.22264 -0.0894,-0.31911 -0.21639,-0.0561 -0.2558,-0.0924 -0.16357,-0.15076 0.0668,-0.0423 0.18553,-0.0775 0.26378,-0.0782 0.0826,-7.6e-4 0.15364,-0.0812 0.16934,-0.1918 0.0171,-0.1207 0.0951,-0.20018 0.21276,-0.21693 0.14692,-0.0209 0.19112,-0.0916 0.21166,-0.33866 0.0246,-0.29546 0.0419,-0.31224 0.32229,-0.31224 0.28041,0 0.29773,0.0168 0.3223,0.31224 0.0205,0.24704 0.0647,0.31775 0.21167,0.33866 0.11419,0.0162 0.19563,0.0961 0.21149,0.20727 0.0181,0.12691 0.10647,0.1971 0.29633,0.23537 0.21281,0.0429 0.24344,0.0718 0.14355,0.13536 -0.0699,0.0445 -0.19143,0.0814 -0.27017,0.0821 -0.26304,0.002 -0.25772,0.17783 0.008,0.2783 0.14395,0.0543 0.26174,0.12018 0.26174,0.14633 0,0.0261 -0.11779,0.092 -0.26174,0.14634 -0.31062,0.11724 -0.26981,0.23235 0.11181,0.31538 0.28953,0.063 0.2579,0.0993 -0.21944,0.25188 -0.129,0.0412 -0.13867,0.0733 -0.0531,0.17641 0.0575,0.0693 0.17611,0.12599 0.26354,0.12599 0.2431,0 0.18939,0.12073 -0.10277,0.23101 -0.30993,0.11698 -0.26957,0.23423 0.10652,0.30945 0.29759,0.0595 0.24707,0.18866 -0.0922,0.23554 -0.30912,0.0427 -0.31812,0.23274 -0.0139,0.29358 0.32992,0.066 0.3324,0.15906 0.007,0.2724 -0.1397,0.0487 -0.254,0.11156 -0.254,0.13969 0,0.0281 0.1143,0.091 0.254,0.13969 0.1397,0.0487 0.254,0.11793 0.254,0.15385 0,0.14482 -1.42664,0.21922 -2.13783,0.11148 z m 3.28084,2.5e-4 c -0.29836,-0.0718 -0.32068,-0.17482 -0.0507,-0.23412 0.34146,-0.075 0.33518,-0.25118 -0.0128,-0.35867 -0.28271,-0.0873 -0.26569,-0.1116 0.16933,-0.2413 0.19633,-0.0585 0.11578,-0.29085 -0.10084,-0.29085 -0.31131,0 -0.35016,-0.1638 -0.0529,-0.22324 0.33896,-0.0678 0.33133,-0.23777 -0.0156,-0.34656 l -0.27517,-0.0863 0.27517,-0.10357 c 0.15134,-0.057 0.27516,-0.15223 0.27516,-0.2117 0,-0.0595 -0.12382,-0.13309 -0.27516,-0.16359 -0.21603,-0.0435 -0.24788,-0.0728 -0.14817,-0.13628 0.0699,-0.0445 0.19367,-0.0814 0.27517,-0.0821 0.22671,-0.002 0.17614,-0.24505 -0.0635,-0.30519 -0.11642,-0.0292 -0.21167,-0.083 -0.21167,-0.11944 0,-0.0365 0.0952,-0.0902 0.21167,-0.11943 0.29353,-0.0737 0.26511,-0.27204 -0.048,-0.33466 -0.2943,-0.0589 -0.25966,-0.22324 0.047,-0.22324 0.14376,0 0.20847,-0.0541 0.22784,-0.1905 0.0174,-0.12242 0.0951,-0.20017 0.21756,-0.21756 0.16065,-0.0228 0.1905,-0.0792 0.1905,-0.35983 0,-0.32276 0.009,-0.33278 0.29122,-0.33278 0.27481,0 0.2927,0.0177 0.3175,0.31416 0.0214,0.25537 0.0659,0.32335 0.23794,0.3633 0.13155,0.0306 0.22165,0.11797 0.23804,0.23097 0.0151,0.10377 0.0983,0.19315 0.19386,0.2082 0.22662,0.0357 0.21514,0.18523 -0.0185,0.24038 -0.2877,0.0679 -0.28472,0.22928 0.005,0.29301 0.14217,0.0312 0.25849,0.0888 0.25849,0.12798 0,0.0392 -0.11632,0.0968 -0.25849,0.12799 -0.29013,0.0637 -0.29311,0.22509 -0.005,0.29301 0.10407,0.0246 0.18922,0.0828 0.18922,0.12934 0,0.0466 -0.0851,0.10476 -0.18922,0.12933 -0.29404,0.0694 -0.29253,0.24622 0.003,0.30524 0.33143,0.0663 0.33456,0.17088 0.007,0.24276 -0.33385,0.0733 -0.3248,0.26101 0.0159,0.32914 0.28079,0.0562 0.25024,0.17967 -0.0582,0.2353 -0.25544,0.0461 -0.20783,0.2778 0.0635,0.30902 0.30923,0.0356 0.29682,0.17631 -0.0212,0.23991 -0.1397,0.0279 -0.254,0.0984 -0.254,0.15663 0,0.0582 0.1143,0.12869 0.254,0.15663 0.34894,0.0698 0.31859,0.19154 -0.0635,0.25469 -0.36023,0.0596 -1.58557,0.0555 -1.8415,-0.006 z"
       id="path663" /></g></svg>
