<?xml version="1.0" encoding="UTF-8" standalone="no"?>
<!-- Created with Inkscape (http://www.inkscape.org/) -->

<svg
   width="15.522228mm"
   height="17.076521mm"
   viewBox="0 0 15.522228 17.076521"
   version="1.1"
   id="svg1592"
   xml:space="preserve"
   inkscape:version="1.2.1 (9c6d41e410, 2022-07-14)"
   sodipodi:docname="transmission_tower.svg"
   xmlns:inkscape="http://www.inkscape.org/namespaces/inkscape"
   xmlns:sodipodi="http://sodipodi.sourceforge.net/DTD/sodipodi-0.dtd"
   xmlns="http://www.w3.org/2000/svg"
   xmlns:svg="http://www.w3.org/2000/svg"><sodipodi:namedview
     id="namedview1594"
     pagecolor="#ffffff"
     bordercolor="#666666"
     borderopacity="1.0"
     inkscape:showpageshadow="2"
     inkscape:pageopacity="0.0"
     inkscape:pagecheckerboard="0"
     inkscape:deskcolor="#d1d1d1"
     inkscape:document-units="mm"
     showgrid="false"
     inkscape:zoom="0.69575617"
     inkscape:cx="32.338915"
     inkscape:cy="-44.555839"
     inkscape:window-width="1280"
     inkscape:window-height="961"
     inkscape:window-x="-8"
     inkscape:window-y="-8"
     inkscape:window-maximized="1"
     inkscape:current-layer="layer1" /><defs
     id="defs1589" /><g
     inkscape:label="Layer 1"
     inkscape:groupmode="layer"
     id="layer1"
     transform="translate(-96.626212,-160.6155)"><path
       style="fill:#000000;stroke-width:0.352778"
       d="m 98.390101,177.05992 c 0,-0.34766 0.714375,-1.33321 1.587505,-2.19012 2.064894,-2.02654 2.125574,-3.09544 0.236004,-4.15744 -0.969174,-0.5447 -1.459457,-0.65161 -1.733151,-0.37792 -0.508501,0.5085 -1.148691,0.0754 -1.148691,-0.77713 0,-0.3766 -0.15875,-0.68473 -0.352778,-0.68473 -0.194028,0 -0.352778,-0.15875 -0.352778,-0.35278 0,-0.20159 1.058334,-0.35278 2.469445,-0.35278 2.346533,0 2.469443,-0.0407 2.469443,-0.81698 0,-1.01388 -2.464008,-2.57512 -3.084641,-1.95449 -0.508501,0.50851 -1.148691,0.0754 -1.148691,-0.77712 0,-0.37661 -0.15875,-0.68474 -0.352778,-0.68474 -0.194028,0 -0.352778,-0.15875 -0.352778,-0.35278 0,-0.20255 1.082774,-0.35278 2.542765,-0.35278 2.456533,0 2.588143,-0.0443 3.880563,-1.30631 l 1.33779,-1.30632 1.33779,1.30632 c 1.29242,1.26201 1.42403,1.30631 3.88055,1.30631 1.45999,0 2.54277,0.15023 2.54277,0.35278 0,0.19403 -0.15875,0.35278 -0.35278,0.35278 -0.19403,0 -0.35278,0.30813 -0.35278,0.68474 0,0.85251 -0.64019,1.28563 -1.14869,0.77712 -0.62063,-0.62063 -3.08464,0.94061 -3.08464,1.95449 0,0.77632 0.12292,0.81698 2.46944,0.81698 1.41111,0 2.46945,0.15119 2.46945,0.35278 0,0.19403 -0.15875,0.35278 -0.35278,0.35278 -0.19403,0 -0.35278,0.30813 -0.35278,0.68473 0,0.85252 -0.64019,1.28563 -1.14869,0.77713 -0.27369,-0.27369 -0.76397,-0.16678 -1.73315,0.37792 -1.88956,1.062 -1.82888,2.1309 0.23601,4.15744 1.43969,1.41295 2.07509,2.82222 1.27246,2.82222 -0.17328,0 -1.50879,-0.24687 -2.96781,-0.5486 -2.39978,-0.49629 -2.92856,-0.49629 -5.54476,0 -1.590604,0.30173 -2.95384,0.5486 -3.02942,0.5486 -0.07558,0 -0.137419,-0.28444 -0.137419,-0.6321 z m 4.913139,-1.7049 c 0.15702,-0.14566 -1.0572,-1.15995 -1.41206,-1.17956 -0.1117,-0.006 -0.58795,0.40376 -1.05833,0.91095 l -0.855244,0.92216 1.587494,-0.25691 c 0.87313,-0.1413 1.65529,-0.31979 1.73814,-0.39664 z m 4.52904,-0.37562 c -0.94349,-0.94349 -0.95293,-0.94496 -1.70661,-0.26459 l -0.75787,0.68416 1.00907,0.22284 c 0.55499,0.12257 1.32296,0.24163 1.70661,0.26458 0.62466,0.0374 0.59842,-0.0574 -0.2512,-0.90699 z m -2.38662,-0.80818 0.88194,-0.6829 -0.97013,-0.97693 -0.97014,-0.97694 -0.94374,0.94373 -0.94373,0.94373 0.85554,0.71221 c 1.04959,0.87375 1.01063,0.87306 2.09026,0.0371 z m -2.39105,-3.96593 -0.78395,-0.78395 v 1.5679 1.56791 l 0.78395,-0.78395 0.78395,-0.78396 z m 3.44938,0.70556 v -1.48951 l -0.7715,0.7715 c -0.75162,0.75163 -0.75476,0.79 -0.12171,1.48951 0.35738,0.3949 0.70456,0.71801 0.7715,0.71801 0.0669,0 0.12171,-0.67028 0.12171,-1.48951 z m -1.23472,-1.33272 c 0.62914,-0.69518 0.61617,-0.70555 -0.88194,-0.70555 -1.49812,0 -1.51108,0.0104 -0.88195,0.70555 0.35119,0.38806 0.74806,0.70556 0.88195,0.70556 0.13388,0 0.53076,-0.3175 0.88194,-0.70556 z m -3.70417,-0.17639 c 0,-0.34511 -0.33742,-0.52481 -0.97013,-0.51666 l -0.970144,0.0125 0.881944,0.50416 c 1.10379,0.63099 1.05833,0.63099 1.05833,0 z m 7.37894,-0.40056 c 0.0808,-0.0707 -0.27634,-0.1286 -0.79375,-0.1286 -0.61061,0 -0.94074,0.19005 -0.94074,0.54158 0,0.44881 0.13596,0.47084 0.79375,0.1286 0.43656,-0.22714 0.85989,-0.47085 0.94074,-0.54158 z m -3.77276,-1.61811 -0.78395,-0.78395 -0.78395,0.78395 -0.78395,0.78395 h 1.5679 1.5679 z m -2.11667,-2.11666 -0.78395,-0.78395 v 1.5679 1.5679 l 0.78395,-0.78395 0.78395,-0.78395 z m 3.44938,0.70555 v -1.4895 l -0.7715,0.77149 c -0.75162,0.75163 -0.75476,0.79 -0.12171,1.48951 0.35738,0.3949 0.70456,0.71801 0.7715,0.71801 0.0669,0 0.12171,-0.67028 0.12171,-1.48951 z m -1.23472,-1.33271 c 0.62914,-0.69519 0.61617,-0.70556 -0.88194,-0.70556 -1.49812,0 -1.51108,0.0104 -0.88195,0.70556 0.35119,0.38805 0.74806,0.70555 0.88195,0.70555 0.13388,0 0.53076,-0.3175 0.88194,-0.70555 z m -3.70417,-0.17639 c 0,-0.34512 -0.33742,-0.52482 -0.97013,-0.51667 l -0.970144,0.0125 0.881944,0.50417 c 1.10379,0.63098 1.05833,0.63098 1.05833,0 z m 7.37894,-0.40057 c 0.0808,-0.0707 -0.27634,-0.1286 -0.79375,-0.1286 -0.61061,0 -0.94074,0.19005 -0.94074,0.54158 0,0.44881 0.13596,0.47084 0.79375,0.1286 0.43656,-0.22713 0.85989,-0.47084 0.94074,-0.54158 z m -3.77276,-1.61811 -0.78395,-0.78395 -0.78395,0.78395 -0.78395,0.78395 h 1.5679 1.5679 z"
       id="path2814" /></g></svg>
